<svg width="555" height="555" viewBox="0 0 555 555" fill="none" xmlns="http://www.w3.org/2000/svg">
<g opacity="0.5">
<g clip-path="url(#clip0_409_10788)">
<path d="M148.766 151.878L100.833 330.765C100.426 332.283 100.861 333.903 101.972 335.015L232.927 465.969C234.038 467.081 235.659 467.515 237.177 467.108L416.064 419.176C417.583 418.769 418.769 417.583 419.176 416.064L467.108 237.177C467.515 235.659 467.081 234.038 465.969 232.927L335.015 101.972C333.903 100.861 332.283 100.426 330.765 100.833L151.878 148.766C150.359 149.173 149.173 150.359 148.766 151.878Z" stroke="#171310" stroke-width="2"/>
<path d="M389.509 386.397L433.8 221.102C434.207 219.583 433.772 217.963 432.661 216.851L311.656 95.8462C310.544 94.7346 308.924 94.3004 307.405 94.7073L142.11 138.998C140.591 139.405 139.405 140.591 138.998 142.11L94.7073 307.405C94.3004 308.924 94.7346 310.544 95.8462 311.656L216.851 432.661C217.963 433.772 219.583 434.207 221.102 433.8L386.397 389.509C387.916 389.102 389.102 387.916 389.509 386.397Z" stroke="#171310" stroke-width="2"/>
</g>
<g clip-path="url(#clip1_409_10788)">
<path d="M419.053 415.941L466.985 237.054C467.392 235.536 466.958 233.915 465.847 232.804L334.892 101.849C333.781 100.738 332.16 100.304 330.642 100.711L151.755 148.643C150.236 149.05 149.05 150.236 148.643 151.755L100.71 330.642C100.304 332.16 100.738 333.781 101.849 334.892L232.804 465.847C233.915 466.958 235.536 467.392 237.054 466.986L415.941 419.053C417.46 418.646 418.646 417.46 419.053 415.941Z" stroke="#171310" stroke-width="2"/>
<path d="M409.103 405.992L453.394 240.696C453.801 239.178 453.367 237.557 452.255 236.446L331.25 115.441C330.139 114.329 328.518 113.895 327 114.302L161.704 158.593C160.186 159 159 160.186 158.593 161.704L114.302 327C113.895 328.519 114.329 330.139 115.441 331.251L236.445 452.255C237.557 453.367 239.177 453.801 240.696 453.394L405.992 409.104C407.51 408.697 408.696 407.511 409.103 405.992Z" stroke="#171310" stroke-width="2"/>
</g>
</g>
<defs>
<clipPath id="clip0_409_10788">
<rect width="210.164" height="382.867" fill="white" transform="translate(270.728) rotate(45)"/>
</clipPath>
<clipPath id="clip1_409_10788">
<rect width="191.435" height="382.867" fill="white" transform="translate(283.848 554.576) rotate(-135)"/>
</clipPath>
</defs>
</svg>
