<svg width="56" height="56" viewBox="0 0 56 56" fill="none" xmlns="http://www.w3.org/2000/svg">
<circle cx="28" cy="28" r="28" transform="rotate(180 28 28)" fill="#FEFBF9"/>
<path fill-rule="evenodd" clip-rule="evenodd" d="M15.6049 17.9876L26.5239 11.2742V18.7593L17.8427 23.9294V27.7491L26.5239 22.5018V24.894L17.8427 30.1027V36.5432C18.0859 37.7275 17.3131 39.155 15.8862 39.9788C14.2042 40.9499 12.2503 40.7145 11.522 39.453C10.7937 38.1915 11.5668 36.3817 13.2488 35.4106C14.0253 34.9623 14.8598 34.7711 15.6049 34.8194V17.9876ZM28.1605 42.6805H28.1057V41.2593C28.4097 41.1314 28.7958 41.002 29.2275 40.9065C30.096 40.4819 30.8438 39.7889 31.4662 38.9825C32.1865 38.0493 32.6997 37.0127 33.0031 36.2038C32.557 35.8359 32.2726 35.2788 32.2726 34.6553C32.2726 33.5473 33.1709 32.649 34.2789 32.649C35.387 32.649 36.2852 33.5473 36.2852 34.6553C36.2852 35.7514 35.4063 36.6421 34.3149 36.6613C33.9692 37.5913 33.3885 38.7652 32.5658 39.8311C32.2857 40.1941 31.9729 40.5503 31.6269 40.8821C31.9857 40.9701 32.3417 41.1099 32.6781 41.3192C33.1784 41.6306 33.7524 41.6693 34.3166 41.5567C34.6848 41.4833 35.023 41.3496 35.2878 41.2134C35.284 41.1628 35.282 41.1117 35.282 41.0601C35.282 39.952 36.1803 39.0538 37.2883 39.0538C38.3964 39.0538 39.2946 39.952 39.2946 41.0601C39.2946 42.1681 38.3964 43.0664 37.2883 43.0664C36.7333 43.0664 36.2308 42.841 35.8676 42.4767C35.5064 42.657 35.0675 42.8233 34.5884 42.9189C33.7958 43.077 32.8329 43.0515 31.9443 42.4986C31.4297 42.1784 30.7718 42.0991 30.0972 42.1694C29.9517 42.1846 29.8092 42.2064 29.6719 42.2328C29.2198 42.4373 28.7342 42.5894 28.2146 42.6719L28.1605 42.6805ZM30.0311 28.9911C29.3696 28.1581 28.456 27.8998 28.1057 27.8666V26.4758H28.1244L28.1431 26.4768C28.7771 26.5111 30.1388 26.8932 31.1188 28.1274C31.7727 28.9508 32.5535 28.9624 32.7458 28.9216L32.801 28.9099L32.8573 28.9073C33.3623 28.8835 34.0886 28.8906 34.803 28.9343C35.1156 28.9397 35.5151 28.9366 35.9396 28.908C36.4171 28.8759 36.9076 28.8127 37.3347 28.7011C37.7752 28.5861 38.0763 28.4377 38.2421 28.283C39.0738 27.5067 40.071 27.2051 40.7722 27.1191C40.8742 26.788 41.0596 26.4934 41.3038 26.2599C41.0198 25.4384 40.9768 24.5061 41.0244 23.6883C41.0696 22.9136 41.2003 22.1797 41.3358 21.6286C40.935 21.2618 40.6837 20.7343 40.6837 20.1482C40.6837 19.0401 41.5819 18.1419 42.69 18.1419C43.798 18.1419 44.6963 19.0401 44.6963 20.1482C44.6963 21.2562 43.798 22.1545 42.69 22.1545C42.6819 22.1545 42.6738 22.1544 42.6657 22.1544C42.6569 22.1542 42.6481 22.1541 42.6393 22.1539C42.5389 22.6039 42.4458 23.1736 42.4111 23.7691C42.3699 24.4759 42.4149 25.1573 42.5841 25.7069C42.6191 25.705 42.6544 25.7041 42.69 25.7041C43.798 25.7041 44.6963 26.6024 44.6963 27.7104C44.6963 28.8185 43.798 29.7167 42.69 29.7167C41.8661 29.7167 41.1582 29.2201 40.8493 28.5099C40.3956 28.5807 39.7339 28.7906 39.1898 29.2984C38.8883 29.5798 38.5073 29.7746 38.1178 29.913C39.6795 30.991 41.117 32.6642 42.1538 34.3419C42.3245 34.2947 42.5043 34.2695 42.69 34.2695C43.798 34.2695 44.6963 35.1678 44.6963 36.2758C44.6963 37.3839 43.798 38.2821 42.69 38.2821C41.5819 38.2821 40.6837 37.3839 40.6837 36.2758C40.6837 35.8616 40.8092 35.4766 41.0243 35.157C39.8682 33.2588 38.208 31.4498 36.5817 30.6028C36.522 30.5717 36.3502 30.516 36.0375 30.4615C35.7456 30.4106 35.3902 30.3703 35.0103 30.3408C34.9231 30.3341 34.8353 30.328 34.7474 30.3225L34.662 30.3206C34.4842 30.3162 34.3386 30.3095 34.2364 30.3039C34.1852 30.3011 34.1449 30.2986 34.1167 30.2967L34.0838 30.2944L34.0745 30.2937L34.0717 30.2935L34.0704 30.2934L34.0704 30.2932L34.0705 30.2915C33.6544 30.2792 33.2672 30.2803 32.9701 30.2926C32.2939 30.4089 31.0121 30.2265 30.0311 28.9911ZM28.1371 18.7592H28.1057V17.3702H28.1511L28.1579 17.3703C28.9069 17.385 30.0908 17.5996 31.3384 18.172C32.889 18.0641 33.9269 17.3205 34.4473 16.7642C34.2431 16.45 34.1246 16.0751 34.1246 15.6726C34.1246 14.5645 35.0228 13.6663 36.1309 13.6663C37.2389 13.6663 38.1372 14.5645 38.1372 15.6726C38.1372 16.7806 37.2389 17.6789 36.1309 17.6789C35.9343 17.6789 35.7444 17.6506 35.5648 17.5979C35.0643 18.169 34.236 18.83 33.0917 19.2245C33.6983 19.6894 34.2819 20.2615 34.7962 20.9615C34.9282 20.9342 35.0649 20.9198 35.2049 20.9198C36.313 20.9198 37.2112 21.8181 37.2112 22.9261C37.2112 24.0342 36.313 24.9324 35.2049 24.9324C34.0969 24.9324 33.1986 24.0342 33.1986 22.9261C33.1986 22.4651 33.3541 22.0404 33.6155 21.7016C32.8253 20.6578 31.8464 19.9572 30.8995 19.5005C29.7715 18.9565 28.7156 18.7718 28.1371 18.7592ZM36.8254 15.6726C36.8254 16.0561 36.5144 16.3671 36.1309 16.3671C35.7473 16.3671 35.4364 16.0561 35.4364 15.6726C35.4364 15.289 35.7473 14.9781 36.1309 14.9781C36.5144 14.9781 36.8254 15.289 36.8254 15.6726ZM35.2049 23.6206C35.5885 23.6206 35.8994 23.3097 35.8994 22.9261C35.8994 22.5426 35.5885 22.2316 35.2049 22.2316C34.8214 22.2316 34.5104 22.5426 34.5104 22.9261C34.5104 23.3097 34.8214 23.6206 35.2049 23.6206ZM43.3845 20.1482C43.3845 20.5317 43.0735 20.8427 42.69 20.8427C42.3064 20.8427 41.9955 20.5317 41.9955 20.1482C41.9955 19.7646 42.3064 19.4537 42.69 19.4537C43.0735 19.4537 43.3845 19.7646 43.3845 20.1482ZM42.69 28.4049C43.0735 28.4049 43.3845 28.094 43.3845 27.7104C43.3845 27.3269 43.0735 27.0159 42.69 27.0159C42.3064 27.0159 41.9955 27.3269 41.9955 27.7104C41.9955 28.094 42.3064 28.4049 42.69 28.4049ZM34.9734 34.6553C34.9734 35.0389 34.6625 35.3498 34.2789 35.3498C33.8954 35.3498 33.5844 35.0389 33.5844 34.6553C33.5844 34.2718 33.8954 33.9609 34.2789 33.9609C34.6625 33.9609 34.9734 34.2718 34.9734 34.6553ZM42.69 36.9703C43.0735 36.9703 43.3845 36.6594 43.3845 36.2758C43.3845 35.8923 43.0735 35.5813 42.69 35.5813C42.3064 35.5813 41.9955 35.8923 41.9955 36.2758C41.9955 36.6594 42.3064 36.9703 42.69 36.9703ZM37.9828 41.0601C37.9828 41.4437 37.6719 41.7546 37.2883 41.7546C36.9048 41.7546 36.5938 41.4437 36.5938 41.0601C36.5938 40.6765 36.9048 40.3656 37.2883 40.3656C37.6719 40.3656 37.9828 40.6765 37.9828 41.0601Z" fill="#171310"/>
</svg>
