<svg width="49" height="152" viewBox="0 0 49 152" fill="none" xmlns="http://www.w3.org/2000/svg">
<path fill-rule="evenodd" clip-rule="evenodd" d="M-7.62939e-06 152C0.00793457 152 0.0158806 152 0.0238266 152C0.0238349 100.19 22.7841 91.3995 37.273 85.8032C44.0381 83.1902 49 81.2737 49 76C49 70.7263 44.0381 68.8098 37.273 66.1968C22.7841 60.6005 0.023843 51.8095 0.0238551 -4.28163e-06C0.0159053 -4.28233e-06 0.0079593 1.09758e-05 1.32883e-05 1.09751e-05L1.11969e-05 23.9221C1.37348 31.3137 3.40014 37.4136 5.87955 42.4859C10.6606 52.2666 17.0689 58.1102 23.4745 61.9967C28.0892 64.7966 32.8076 66.6191 36.7061 68.1248C38.1121 68.6679 39.4115 69.1698 40.5609 69.6615C42.8196 70.6277 44.449 71.5219 45.5131 72.5398C46.4884 73.4728 47 74.5156 47 76C47 77.4844 46.4884 78.5272 45.5131 79.4602C44.449 80.4781 42.8196 81.3723 40.5609 82.3385C39.4115 82.8302 38.1122 83.3321 36.7061 83.8751L36.706 83.8752C32.8076 85.3809 28.0892 87.2034 23.4745 90.0033C17.0689 93.8898 10.6606 99.7334 5.87954 109.514C3.40012 114.586 1.37347 120.686 -5.53806e-06 128.078L-7.62939e-06 152Z" fill="#FE7A15"/>
</svg>
