<svg width="49" height="152" viewBox="0 0 49 152" fill="none" xmlns="http://www.w3.org/2000/svg">
<path fill-rule="evenodd" clip-rule="evenodd" d="M49 1.23421e-05C48.9921 4.11536e-06 48.9841 6.94627e-10 48.9762 0C48.9762 51.8095 26.216 60.6005 11.727 66.1968C4.96189 68.8098 0 70.7263 0 76C0 81.2737 4.96189 83.1902 11.727 85.8032C26.2159 91.3995 48.9762 100.19 48.9762 152C48.9841 152 48.9921 152 49 152V128.078C47.6265 120.686 45.5999 114.586 43.1205 109.514C38.3394 99.7334 31.9311 93.8898 25.5255 90.0033C20.9108 87.2034 16.1924 85.3809 12.2939 83.8752C10.8879 83.3321 9.5885 82.8302 8.43913 82.3385C6.18043 81.3723 4.55104 80.4781 3.48694 79.4602C2.51165 78.5272 2 77.4844 2 76C2 74.5156 2.51165 73.4728 3.48694 72.5398C4.55104 71.5219 6.18043 70.6277 8.43913 69.6615C9.58849 69.1698 10.8878 68.6679 12.2939 68.1249L12.294 68.1248C16.1924 66.619 20.9108 64.7966 25.5255 61.9967C31.9311 58.1102 38.3394 52.2666 43.1205 42.4859C45.5999 37.4136 47.6265 31.3137 49 23.9221V1.23421e-05Z" fill="#FEFBF9"/>
</svg>
